<?xml version="1.0" encoding="utf-8"?>
<!-- Generator: Adobe Illustrator 19.2.1, SVG Export Plug-In . SVG Version: 6.00 Build 0)  -->
<svg version="1.1" id="Capa_1" xmlns="http://www.w3.org/2000/svg" xmlns:xlink="http://www.w3.org/1999/xlink" x="0px" y="0px"
	 viewBox="0 0 80 80" style="enable-background:new 0 0 80 80;" xml:space="preserve">
<style type="text/css">
	.st0{fill:#FFFFFF;stroke:#1F4B86;stroke-width:1.5;stroke-linecap:round;stroke-linejoin:round;stroke-miterlimit:10;}
	.st1{fill:none;stroke:#1F4B86;stroke-width:1.5;stroke-linecap:round;stroke-linejoin:round;stroke-miterlimit:10;}
</style>
<circle class="st0" cx="40" cy="40" r="37.2"/>
<path class="st1" d="M51.1,31c2.7,1.1,4.2,2.3,6.4,4.7c2,2.1,1.9,7.1,1.9,10.2C59.3,57,59.5,66,59.5,66H51V43"/>
<path class="st1" d="M29,43v23h-8c0,0,0.1-9,0.1-20.1c0-3.2-0.1-8.2,1.9-10.2c2.3-2.4,4-3.6,6.4-4.7"/>
<path class="st1" d="M31.6,26.9c-1.1-2-1.6-4.4-1.6-6.8c0-6.3,3.7-10.8,10-10.8s10,4.5,10,10.8c0,2.5-0.6,5-1.7,7"/>
<polyline class="st1" points="45.8,30 51,30 45.3,25.3 33.9,25.3 29,30 34.4,30 "/>
<polygon class="st1" points="40,38.6 35.1,36.8 33.9,30.2 40,27.2 46.1,30.2 45,36.7 "/>
<polygon class="st1" points="40,63.3 36.5,59.8 40,39.1 43.5,59.8 "/>
<line class="st1" x1="28" y1="19" x2="32.8" y2="19"/>
<line class="st1" x1="47.2" y1="19" x2="52" y2="19"/>
<line class="st1" x1="38.3" y1="19" x2="41.7" y2="19"/>
<rect x="41.7" y="17.5" class="st1" width="5.5" height="3.6"/>
<rect x="32.8" y="17.5" class="st1" width="5.5" height="3.6"/>
<line class="st1" x1="40.9" y1="24.3" x2="39.1" y2="24.3"/>
</svg>
