<?xml version="1.0" encoding="utf-8"?>
<!-- Generator: Adobe Illustrator 19.2.1, SVG Export Plug-In . SVG Version: 6.00 Build 0)  -->
<svg version="1.1" id="Capa_1" xmlns="http://www.w3.org/2000/svg" xmlns:xlink="http://www.w3.org/1999/xlink" x="0px" y="0px"
	 viewBox="0 0 80 80" style="enable-background:new 0 0 80 80;" xml:space="preserve">
<style type="text/css">
	.st0{fill:#FFFFFF;stroke:#1F4B86;stroke-width:1.5;stroke-linecap:round;stroke-linejoin:round;stroke-miterlimit:10;}
	.st1{fill:none;stroke:#1F4B86;stroke-width:1.5;stroke-linecap:round;stroke-linejoin:round;stroke-miterlimit:10;}
</style>
<circle class="st0" cx="40" cy="40" r="37.2"/>
<path class="st1" d="M33.3,49.8l-5.1,0.8"/>
<path class="st1" d="M52.7,37.5c-1-0.7-2.1-1.1-3.4-1.5c-4.6-1-14.5-1.1-19.1,0c-2.5,0.6-4.9,2.4-6.4,5.1c-1.9,3.4-3.2,8.4-3.8,12.3
	c-1.3,8.1,14.9,4.4,14.9,4.4l0.5-1.2"/>
<path class="st1" d="M30.8,19.1c0,6.3,3.7,12.1,10,12.1s10-5.8,10-12.1s-3.7-10.7-10-10.7S30.8,12.8,30.8,19.1z"/>
<path class="st1" d="M34.9,10c0,0,4.6,7.7,15.9,9.7"/>
<line class="st1" x1="53" y1="61.1" x2="53" y2="69"/>
<line class="st1" x1="27" y1="59" x2="27" y2="69"/>
<polyline class="st1" points="56.4,58.5 55.8,61 40.5,61 46,38 61.3,38 58.6,49.1 "/>
<polyline class="st1" points="53.7,45.6 51.9,42.5 45.3,42.5 43.7,48.7 48.7,51.8 "/>
<path class="st1" d="M53.8,45.4l-5.1,6.4l7.7,6.7c0,0,3.5,1.8,5.7-1.3c1.9-2.8-0.5-5.8-0.5-5.8L53.8,45.4z"/>
<path class="st1" d="M42,45.2c0,0-8.6,3.3-9.1,5.3s-0.5,5.7,2.5,6.1c3,0.4,4.2-2.6,4.2-2.6l-0.5-4.3c0,0,2.5-1,2.9-1.8
	C42.3,47.3,42,45.2,42,45.2z"/>
<path class="st1" d="M38.9,14.9c0,0-1.4,5.8-6.8,7"/>
<path class="st1" d="M31,15c-2.1,0-3.7,1.7-3.7,3.7c0,0.8,0.3,1.5,0.7,2.1c-1.9,0.2-3.4,1.8-3.4,3.7c0,0.9,0.3,1.7,0.9,2.4
	c-1.1,0.6-1.9,1.8-1.9,3.2c0,2.1,1.7,3.7,3.7,3.7"/>
</svg>
