<?xml version="1.0" encoding="utf-8"?>
<!-- Generator: Adobe Illustrator 19.2.1, SVG Export Plug-In . SVG Version: 6.00 Build 0)  -->
<svg version="1.1" id="Capa_1" xmlns="http://www.w3.org/2000/svg" xmlns:xlink="http://www.w3.org/1999/xlink" x="0px" y="0px"
	 viewBox="0 0 80 80" style="enable-background:new 0 0 80 80;" xml:space="preserve">
<style type="text/css">
	.st0{fill:#FFFFFF;stroke:#1F4B86;stroke-width:1.5;stroke-linecap:round;stroke-linejoin:round;stroke-miterlimit:10;}
	.st1{fill:none;stroke:#1F4B86;stroke-width:1.5;stroke-linecap:round;stroke-linejoin:round;stroke-miterlimit:10;}
</style>
<circle class="st0" cx="40" cy="40" r="37.2"/>
<path class="st1" d="M20,46.5l5.9-6.8c2-2.4,3.4-3.1,5.7-3.7c4.6-1,14.4-1.1,19.1,0c2.5,0.6,3.7,1.3,5.7,3.7
	c1.8,2.1,1.6,5.1,1.6,8.2C58,59,58.1,69,58.1,69H50V45"/>
<path class="st1" d="M29,50.6c0,1.7-9.9,8.3-9.9,8.3L13,49.6"/>
<path class="st1" d="M50,19.1c0,6.3-3.7,12.1-10,12.1s-10-5.8-10-12.1S33.7,8.3,40,8.3S50,12.8,50,19.1z"/>
<path class="st1" d="M34,10c0,0,4.6,7.7,15.9,9.7"/>
<line class="st1" x1="29" y1="45" x2="29" y2="69"/>
<path class="st1" d="M15.2,39.7c0,0-4.4,0.1-4.9,1.1c-1.5,3.2,0.3,7.5,0.3,7.5c2.5,2.6,7.4-0.1,7.4-0.1s-0.4-5.6-0.1-7.4
	c0.2-1.3,0.6-4,0.6-4s-1.8-0.9-2.6-0.5c-1,0.6-1.4,2.3-1.4,2.3"/>
<line class="st1" x1="17.9" y1="43.2" x2="21.6" y2="48.9"/>
</svg>
