<?xml version="1.0" encoding="utf-8"?>
<!-- Generator: Adobe Illustrator 19.2.1, SVG Export Plug-In . SVG Version: 6.00 Build 0)  -->
<svg version="1.1" id="Capa_1" xmlns="http://www.w3.org/2000/svg" xmlns:xlink="http://www.w3.org/1999/xlink" x="0px" y="0px"
	 viewBox="0 0 80 80" style="enable-background:new 0 0 80 80;" xml:space="preserve">
<style type="text/css">
	.st0{fill:#FFFFFF;stroke:#1F4B86;stroke-width:1.5;stroke-linecap:round;stroke-linejoin:round;stroke-miterlimit:10;}
	.st1{fill:none;stroke:#1F4B86;stroke-width:1.5;stroke-linecap:round;stroke-linejoin:round;stroke-miterlimit:10;}
</style>
<circle class="st0" cx="40" cy="40" r="37.2"/>
<path class="st1" d="M54.9,35.8c0.8,0.4,1.7,1,2.5,1.9c2,2.1,1.9,7.1,1.9,10.2C59.3,59,59.5,68,59.5,68H51V45"/>
<path class="st1" d="M35.3,35c3.1,0,10.1,0,13.8,0"/>
<path class="st1" d="M50,66H26.1c0,0-0.3-1.4-0.6-3.6"/>
<polyline class="st1" points="40.7,59 46,59 46,51 38.2,51 "/>
<path class="st1" d="M28.8,35c-4.4,0-4.9,4.6-4.9,4.6L19.1,59h4.1"/>
<polygon class="st1" points="29.2,33 23.4,62 40.6,62 34.2,33 "/>
<rect x="51.4" y="28.7" transform="matrix(0.7071 -0.7071 0.7071 0.7071 -6.2166 47.0854)" class="st1" width="4.7" height="4.7"/>
<rect x="50.1" y="23.3" transform="matrix(0.7071 -0.7071 0.7071 0.7071 -2.7734 44.603)" class="st1" width="4.7" height="4.7"/>
<rect x="49.7" y="33.7" transform="matrix(0.7071 -0.7071 0.7071 0.7071 -10.2535 47.365)" class="st1" width="4.7" height="4.7"/>
<path class="st1" d="M50.8,19.1c0,6.3-3.7,12.1-10,12.1s-10-5.8-10-12.1s3.7-10.7,10-10.7S50.8,12.8,50.8,19.1z"/>
<path class="st1" d="M46.6,10.4c0,0-4.6,7.4-15.8,9.3"/>
<path class="st1" d="M44.2,13.7c0,0,0.9,6.4,5.7,6.4"/>
</svg>
